<?xml version="1.0" encoding="UTF-8"?><svg id="Layer_1" xmlns="http://www.w3.org/2000/svg" viewBox="0 0 365.68 94.45"><defs><style>.cls-1{fill:#fff;opacity:.85;}.cls-2{fill:none;}.cls-3{fill:#171717;}.cls-4{fill:#bf5dd0;}</style></defs><path class="cls-4" d="M208.28,29.6c-.81-.14-5.52-1-7.83-5.13-1.69-3.03-2.09-7.82,0-8.94,1.51-.81,4.11.42,6.37,2.63-.57-1.4-2.02-5.48-.35-9.84.29-.76,2.44-6.36,6.03-6.1,2.34.17,4.37,2.55,4.78,4.71.83,4.43-.16,6.1-.35,6.3,1.18-1.87.04-5.67,3.88-9.15,2.51-2.27,7.37-5.21,9.42-3.67,2.29,1.71.57,8.58-2.49,13.03-1.41,2.05-3,3.43-4.16,4.3,0,0,4.23-3.39,7.7-3.26,1.48.06,3.96,1.23,4.35,2.91.86,3.64-8.62,8.79-13.03,11.02,2.67,2.62,2.41,4.19,2.29,4.64-.74,2.75-6.87,4.19-11.29,2.22-3.34-1.49-4.85-4.55-5.33-5.68Z"/><path class="cls-3" d="M143.21,46.23l-14.17,12.63c-.82.11-.26-.82-.12-1.21.94-2.84,5-11.64,4.96-13.83-.02-1.02-2.86-1.87-3.8-1.92-6.42-.34-11,8.83-15.96,12.27-12.32,8.54-2.06-13.25-11.52-8.46-3.56,1.8-5.43,5.65-8.19,7.93-.5.4-.71,1.06-1.53.87-.47-.5,3.83-9.33,3.46-10.62-.21-.75-1.76-1.08-2.2-.45-.55.78-.79,2.8-1.77,4.24-2.92,4.29-16.71,15.54-15.06,3.24.18-1.34,2.1-5.85,2.03-6.17-.12-.52-1.33-1.06-1.9-1.12-1.05.23-.69,3.87-2.83,4.58-2.04.68-3.06.05-4.59-1.12-1.37-1.05-2.7-3.95-4.16-3.27l-10.45,12.43c-.75-2.2,2.65-12.62,1.99-13.53-.44-.6-1.68-.79-2.11.13-.6,1.26-.52,3.05-1.25,4.41-1.56,2.93-10.04,10.17-13.47,9.24-5.2-1.41.07-9.36.05-11.8-.01-1.44-1.8-1.32-2.67.42-1.45,2.9-3.25,11.1.06,13.06,4.68,2.79,12.19-3.56,15-7.15.21,1.08.23.84.21,1.08-.17,2.67.13,5.4,0,8.06,2.16.31,3.48-1.46,4.81-2.82,3.08-3.14,5.66-7.28,8.49-10.68,2.11,2.47,5.22,4.27,8.49,3.05-1.5,6.49.95,11.07,8.01,8.22l7.68-5.17c-.87,2.3-2.87,9.32,1.99,6.56,1.91-1.09,6.18-7.51,8.68-9.63,1.01-.85,2.36-2.22,3.71-2.16v8.06c0,.33,1.76,2.42,2.19,2.6,3.34,1.41,7.2-1.66,9.57-3.69-.9,9.34,7.74,2.89,10.9-.44-1.37,2.99-2.17,6.66-3.83,9.46-1.03,1.72-8.82,9.69-7.06,11.46.1.1,1.89.04,2.31-.09,2.49-.76,5.68-8.42,7.28-10.58,2.34-3.18,8.23-8.39,11.32-11.34,1.76-1.68,4.06-3.63,6.05-5.06l-.6-1.69ZM119.03,57.12c.15-5.7,5.77-12.81,11.76-13.07,1.5,1.4-8.23,14.03-11.76,13.07Z"/><path class="cls-4" d="M183.78,43.14c-1.4.09-3.47.4-3.31-.61l10.09-24.43h-2.56l-9.96,24.4c-.15.37-.5.62-.9.63l-15.15.44c-.73.02-1.23-.72-.95-1.39l9.58-22.38c.04-.09.74-1.48.75-1.58,0,0-2.8-.29-2.94.04l-10.24,24.59c-.11.25-.3.45-.55.55-2.52.95-11.4.45-12.03,1.09-.06.06-.08,1.38.08,1.66.33.59,3.85.62,4.75,2.86,1.53,3.83-.07,10.2-1.22,14.12-1.24,4.23-4.25,10.73-5.71,14.85,0,0-.04.18,1.68.1.39-.02.74-.25.89-.61l12.9-30.57c.15-.35.48-.58.86-.6l15.24-.86c.71-.04,1.24.65,1.01,1.32-1.91,5.64-4.51,11.03-6.61,16.6-.16.42-2.35,5.62-1.57,5.07,0,0,1.93.23,2.09-.15l8.86-22.26c.05-.15.13-.3.26-.39.86-.57,3.16-.26,4.7-.22.56.01,1.01-.45,1.01-1v-.27c0-.57-.48-1.03-1.05-1ZM156.34,47.63l-1.61,3.76-1.71,3.99c-.19-1.31-.12-2.86-.2-4.32-.03-.62-.09-1.23-.2-1.79-.04-.19-.08-.37-.13-.55-.07-.26-.19-.48-.32-.68-.02-.05-.05-.1-.09-.14-.04-.05-.07-.1-.1-.15-.35-.46-.71-.87-.7-1.52h5.66l-.6,1.4Z"/><path class="cls-3" d="M29.26,47.97c-3.41.03-6.63.37-10.02,0v-2.18c2.81-.11,5.68.16,8.49,0,1.35-.08,6.3-1.9,6.33.21-6.24,10.95-14.01,21.49-18.52,33.36-.85,2.25.07,3.57-2.84,3.04,1.7-9.59,8.02-17.54,12.2-26.14-4.16,3.11-8.03,7-12.91,9.09-14.09,6.01-13.42-7.44-9.68-16.65s15.13-24.2,24.79-27.51c6.37-2.18,10.62-.15,7.78,6.91-.45,1.12-4.08,6.99-4.94,6.81-.35-.08-1.11-1.04-1.11-1.51,0-1,7.29-9.4,3.65-10.62s-11.18,4.48-13.87,6.92c-6.54,5.94-16.27,19.97-16.38,28.96-.16,12.54,14.73,1.28,18.98-2.4,2.88-2.5,5.45-5.51,8.07-8.26Z"/><path class="cls-3" d="M284.19,65.84c.81,1.09,8.9-9.51,9.5-10.32,6.58-8.78,17.69-30.82,26.94-34.5,2.39-.95,4.08-1.16,6.69-.93.03,3.11-1.23,1.81-3.16,2.28-10.14,2.47-17.57,18.88-23.32,27.23-3.23,4.69-9.33,14.06-13.6,17.34-5.11,3.94-5.7-.14-5.19-4.76,1.24-11.23,8.88-24.31,8.7-36.21-.14-9.41-7.79-3.37-12.57-1.64-3.63,1.32-7.53,2.65-11.44,2.72.07-.5-.17-1.3.06-1.68.22-.35,6.7-1.77,8.01-2.23,8.37-2.96,19.2-11.48,18.09,5.46-.81,12.42-7.58,24.84-8.73,37.24Z"/><path class="cls-3" d="M249.11,23.57c-.42.05-2.41.62-2.62.87l-6.75,14.82,15.25-.44v2.18c-5.46.13-11.34-.5-16.55,1.1l-10.47,22.42c6.11-1.73,12.03-3.6,18.51-3.04,1.91.16,6.17.44,4.52,2.99-6.84-.94-13.01-.42-19.56,1.57-1.13.34-5.77,2.5-6.28,2.38-.89-.22-.83-1.88-.48-2.6l10.68-22.87c.21-.66.02-.69-.57-.57-1.44.28-3.74,1.19-2.84-1.09.54-1.38,3.81-1.26,5.08-1.68l6.62-14.95c-1.66-.62-7.06,1.16-8.06-.21-1.07-1.46,2.4-1.89,3.19-2.05,9.67-1.99,20.48-.54,30.34-1.01l.25,2.19c-6.34.59-14.1-.8-20.26,0Z"/><path class="cls-3" d="M351.08,38.82c.81.23,1.01,1.77-.07,2.11-1.78.56-7.14-.06-9.51.08-1.06.06-6.19.6-6.65.98l-10.13,21.9c-.1.64-.05.78.62.62,3.91-.92,7.55-2.68,11.8-3.02,1.48-.12,9.98.13,10.62.91.24.3-.04,1.59.05,2.13-6.7-1.04-12.88-.46-19.37,1.33-1.72.48-8.26,4.14-7.36.51l11.03-23.85-3.48.22c-.87-3.52,2.69-1.94,4.82-3.35l6.5-14.31c.4-1.36-2.62-.24-3.26-.21-1.52.07-3.06-.03-4.57,0-.45-2.54,1.45-2.17,3.34-2.54,9.6-1.88,20.2-.5,29.96-.95l.25,2.19-22.59.5-6.53,14.17-.08,1s2-.43,2.39-.43c2.55,0,10.41-.51,12.2,0Z"/><path class="cls-4" d="M223.05,49.18c-2.04.39-3.25-2.23-5.38-3.33-1.76-.91-3-.55-4.62.4-.52.31-2.35,3.23-2.95,2.59.59-1.09,3.07-6.95,2.62-7.4-.55-.54-.93-.6-1.46.06-.79,1-2.16,5.08-3.14,6.46-.41.58-3.79,3.79-4.46,4.35-2.75,2.26-10.01,7.43-13.39,4.82-1.17-.9-1.61-4.26-1.02-5.18.29-.45,7.14-2.51,9.09-5.5,1.28-1.96,2.26-4.48.41-5.42-5.55-1.38-11.79,7.53-12.15,12.89-.25,3.66,2.49,6.57,6.24,6.22,4.04-.38,8.67-3.62,11.89-6.21.55-.45,1.89-1.6,1.89-1.6.31.36-3.02,9.33-.23,8.71,1.58-.34,4.59-8.67,6.21-10.79,4.49-5.88,4.35.25,8.28.68.24.03,2.36.25,3.52-.2,2.29-.87,3.97-1.92,4.03-2.14,1.04-3.7-4.17.37-5.38.59ZM197.46,42.75c.84,2.24-5.97,6.87-6.97,6.09,1.41-2.67,3.66-5.83,6.97-6.09Z"/><path class="cls-2" d="M119.03,57.12c.15-5.7,5.77-12.81,11.76-13.07,1.5,1.4-8.23,14.03-11.76,13.07Z"/><path class="cls-2" d="M156.34,47.63l-1.61,3.76c-.42.96-1.83.71-1.91-.33-.03-.62-.09-1.23-.2-1.79-.04-.19-.08-.37-.13-.55-.07-.26-.19-.48-.32-.68-.02-.05-.05-.1-.09-.14-.04-.05-.07-.1-.1-.15-.41-.65.06-1.52.85-1.52h2.6c.71,0,1.2.74.91,1.4Z"/><path class="cls-2" d="M151.98,47.75c-.35-.46-.71-.87-.7-1.52h1.55c-.79,0-1.26.87-.85,1.52Z"/><path class="cls-2" d="M154.73,51.39l-1.71,3.99c-.19-1.31-.12-2.86-.2-4.32.08,1.04,1.49,1.29,1.91.33Z"/><path class="cls-2" d="M156.34,47.63c.29-.66-.2-1.4-.91-1.4h1.51l-.6,1.4Z"/><path class="cls-2" d="M190.49,48.84c1.41-2.67,3.66-5.83,6.97-6.09.84,2.24-5.97,6.87-6.97,6.09Z"/><path d="M27.36,84.4h5.04v1.73h-2.97v1.22h2.54v1.73h-2.54v1.39h3.09v1.73h-5.16v-7.8Z"/><path d="M37.28,88.26c0-2.57,1.46-4.01,3.62-4.01s3.62,1.45,3.62,4.01-1.46,4.08-3.62,4.08-3.62-1.51-3.62-4.08ZM42.42,88.26c0-1.42-.58-2.23-1.51-2.23s-1.51.82-1.51,2.23c0,1.54.58,2.4,1.51,2.4s1.51-.86,1.51-2.4ZM39.92,92.12l2.09-.22c.29.7,1.1.91,1.78.91.34,0,.65-.06.89-.14l.36,1.49c-.31.17-.83.29-1.49.29-1.8,0-3.05-.98-3.62-2.33Z"/><path d="M49.46,88.43v-4.03h2.06v4.27c0,1.39.36,1.9,1.18,1.9s1.2-.5,1.2-1.9v-4.27h1.99v4.03c0,2.66-1.01,3.91-3.19,3.91s-3.24-1.25-3.24-3.91Z"/><path d="M62.43,84.4h2.49l2.37,7.8h-2.18l-.89-3.79c-.19-.74-.38-1.69-.58-2.47h-.05c-.17.79-.36,1.73-.55,2.47l-.89,3.79h-2.11l2.38-7.8ZM61.76,88.94h3.81v1.59h-3.81v-1.59Z"/><path d="M71.52,84.4h2.06v6.07h2.95v1.73h-5.01v-7.8Z"/><path d="M81.47,84.4h2.06v7.8h-2.06v-7.8Z"/><path d="M90.33,86.12h-2.06v-1.73h6.19v1.73h-2.06v6.07h-2.06v-6.07Z"/><path d="M100.33,89.5l-2.35-5.11h2.21l.58,1.63c.19.59.38,1.13.59,1.74h.05c.2-.61.41-1.15.61-1.74l.58-1.63h2.16l-2.35,5.11v2.69h-2.06v-2.69Z"/><path d="M131.69,84.4h2.18l.82,3.41c.22.83.36,1.63.58,2.47h.05c.22-.84.37-1.64.58-2.47l.79-3.41h2.11l-2.3,7.8h-2.49l-2.3-7.8Z"/><path d="M142.67,88.26c0-2.57,1.46-4.01,3.62-4.01s3.62,1.45,3.62,4.01-1.46,4.08-3.62,4.08-3.62-1.51-3.62-4.08ZM147.8,88.26c0-1.42-.58-2.23-1.51-2.23s-1.51.82-1.51,2.23.58,2.3,1.51,2.3,1.51-.89,1.51-2.3Z"/><path d="M154.89,84.4h2.06v7.8h-2.06v-7.8Z"/><path d="M161.94,88.35c0-2.61,1.8-4.1,3.77-4.1,1.03,0,1.87.48,2.42,1.03l-1.08,1.32c-.38-.34-.77-.58-1.29-.58-.91,0-1.7.84-1.7,2.25s.67,2.28,1.68,2.28c.6,0,1.08-.31,1.42-.67l1.08,1.3c-.66.77-1.56,1.15-2.57,1.15-1.99,0-3.72-1.32-3.72-3.98Z"/><path d="M172.89,84.4h5.04v1.73h-2.97v1.22h2.54v1.73h-2.54v1.39h3.09v1.73h-5.16v-7.8Z"/><path d="M207.11,84.4h5.04v1.73h-2.97v1.22h2.54v1.73h-2.54v1.39h3.09v1.73h-5.16v-7.8Z"/><path d="M217.37,84.4h2.21l1.18,3.19c.14.43.26.91.41,1.37h.05c.14-.46.26-.94.41-1.37l1.13-3.19h2.21v7.8h-1.87v-2.3c0-.79.17-2,.26-2.78h-.05l-.65,1.87-.96,2.58h-1.1l-.96-2.58-.62-1.87h-.05c.1.78.26,1.99.26,2.78v2.3h-1.85v-7.8Z"/><path d="M230.27,84.4h2.85c1.7,0,3.17.62,3.17,2.59s-1.49,2.73-3.12,2.73h-.84v2.47h-2.06v-7.8ZM233.07,88.09c.82,0,1.2-.41,1.2-1.1s-.46-.96-1.25-.96h-.7v2.06h.74Z"/><path d="M240.81,88.26c0-2.57,1.46-4.01,3.62-4.01s3.62,1.45,3.62,4.01-1.46,4.08-3.62,4.08-3.62-1.51-3.62-4.08ZM245.95,88.26c0-1.42-.58-2.23-1.51-2.23s-1.51.82-1.51,2.23.58,2.3,1.51,2.3,1.51-.89,1.51-2.3Z"/><path d="M252.3,84.4h2.11l.43,3.41c.08.82.18,1.63.26,2.45h.05c.14-.82.29-1.64.43-2.45l.74-3.41h1.73l.74,3.41c.14.78.29,1.62.43,2.45h.05c.08-.83.18-1.66.26-2.45l.43-3.41h1.97l-1.29,7.8h-2.62l-.6-3.09c-.12-.6-.22-1.25-.29-1.82h-.05c-.08.58-.17,1.22-.29,1.82l-.58,3.09h-2.57l-1.37-7.8Z"/><path d="M266.52,84.4h5.04v1.73h-2.97v1.22h2.54v1.73h-2.54v1.39h3.09v1.73h-5.16v-7.8Z"/><path d="M276.78,84.4h2.95c1.68,0,3.12.58,3.12,2.52s-1.44,2.66-3.12,2.66h-.89v2.61h-2.06v-7.8ZM279.58,87.95c.82,0,1.25-.36,1.25-1.03s-.43-.89-1.25-.89h-.74v1.92h.74ZM279.36,89.04l1.39-1.37,2.53,4.52h-2.3l-1.62-3.15Z"/><path d="M287.93,84.4h2.21l1.18,3.19c.14.43.26.91.41,1.37h.05c.14-.46.26-.94.41-1.37l1.13-3.19h2.21v7.8h-1.87v-2.3c0-.79.17-2,.26-2.78h-.05l-.65,1.87-.96,2.58h-1.1l-.96-2.58-.62-1.87h-.05c.1.78.26,1.99.26,2.78v2.3h-1.85v-7.8Z"/><path d="M300.83,84.4h5.04v1.73h-2.97v1.22h2.54v1.73h-2.54v1.39h3.09v1.73h-5.16v-7.8Z"/><path d="M311.09,84.4h2.11l1.73,3.48.74,1.75h.05c-.1-.84-.26-2.02-.26-2.97v-2.25h1.97v7.8h-2.11l-1.73-3.49-.74-1.74h-.05c.1.89.26,2.01.26,2.97v2.25h-1.97v-7.8Z"/><path d="M324.22,86.12h-2.06v-1.73h6.19v1.73h-2.06v6.07h-2.06v-6.07Z"/><rect class="cls-3" x="255.39" y="56.17" width="2.16" height="2.78" transform="translate(43.86 -96.99) rotate(23.36)"/><rect class="cls-3" x="352.99" y="56.8" width="2.16" height="2.78" transform="translate(52.11 -135.64) rotate(23.36)"/><rect class="cls-3" x="302.65" y="56.8" width="2.16" height="2.78" transform="translate(47.98 -115.68) rotate(23.36)"/><rect class="cls-3" x="40.09" y="38.89" width="1.8" height="3.06" transform="translate(14.43 -10.65) rotate(17.92)"/><rect class="cls-3" x="78.74" y="39.4" width="1.8" height="3.06" transform="translate(21.74 -27.38) rotate(22.51)"/><path class="cls-1" d="M207.48,29.51c-.57.08-1.12-.25-1.46-.71-.67-.93-6.95-10.9-6.87-11.11.56-1.46,6.97,8.46,8.58,11.08.89-8.34,4.54-26.91,4.78-26.54,1.08,1.62-3.02,22.4-3.97,27.01C214.11,20.52,229.45.16,230.24.43c.64.22-15.91,22.8-20.83,29.12,7.09-3.7,26.2-11.45,26.2-11.45.01.94-20.23,9.84-26.07,12.02,3.84.3,15.34,3.23,14.9,3.83-.29.4-10.86-2.17-15.69-3.37,0,0,.5.29,0,0-.22-.13-1.03-1.1-1.28-1.06Z"/></svg>